<svg width="87" height="62" viewBox="0 0 87 62" fill="none" xmlns="http://www.w3.org/2000/svg">
<g clip-path="url(#clip0_13_2336)">
<mask id="mask0_13_2336" style="mask-type:luminance" maskUnits="userSpaceOnUse" x="-52" y="-16" width="201" height="113">
<path d="M148.7 -15.7H-51.2V96.7H148.7V-15.7Z" fill="white"/>
</mask>
<g mask="url(#mask0_13_2336)">
<path d="M72.1 49.2H63.1V10.2H72.1V49.2Z" fill="#69C2D2"/>
<path d="M49 31C48.3 37.1 42.8 41.4 36.7 40.7C30.6 40 26.3 34.5 27 28.4C27.7 22.3 33.2 18 39.3 18.7C44.4 19.3 48.4 23.3 49 28.4H58.3C57.6 17.3 48 8.89996 36.9 9.59996C25.8 10.3 17.4 19.9 18.2 31C18.9 42.1 28.5 50.5 39.6 49.8C49.7 49.1 57.7 41.1 58.4 31H49Z" fill="#69C2D2"/>
</g>
</g>
<defs>
<clipPath id="clip0_13_2336">
<rect width="87" height="62" fill="white"/>
</clipPath>
</defs>
</svg>
